<svg width="32" height="32" viewBox="0 0 32 32" fill="none" xmlns="http://www.w3.org/2000/svg">
<path d="M27.5914 13.3403V13.3403C27.5908 9.71105 24.9333 7.05322 21.3038 7.05322C19.3075 7.05322 17.442 7.97454 16.2472 9.53838C15.061 7.97459 13.2228 7.05322 11.241 7.05322C7.61128 7.05322 4.95337 9.711 4.95337 13.3403C4.95337 14.7155 5.56995 16.1955 6.43765 17.6121C7.31188 19.0394 8.47657 20.459 9.64958 21.7261C11.9627 24.2248 14.3527 26.1776 14.7409 26.4904C15.1404 26.8642 15.6608 27.0703 16.2105 27.0703C16.7603 27.0703 17.2811 26.8641 17.681 26.4896C18.0698 26.1754 20.4901 24.1937 22.8332 21.6811C24.021 20.4074 25.2006 18.985 26.0862 17.5645C26.9641 16.1561 27.5914 14.6894 27.5914 13.3403Z" fill="#161A1D" stroke="#F3F4F5"/>
</svg>
