<svg width="197" height="101" viewBox="0 0 197 101" fill="none" xmlns="http://www.w3.org/2000/svg">
<path d="M24.4062 2.5V48H15.0625V2.5H24.4062ZM38.4062 2.5V9.84375H1.28125V2.5H38.4062ZM56.6875 40.375V25.3125C56.6875 24.2292 56.5104 23.3021 56.1562 22.5312C55.8021 21.7396 55.25 21.125 54.5 20.6875C53.7708 20.25 52.8229 20.0312 51.6562 20.0312C50.6562 20.0312 49.7917 20.2083 49.0625 20.5625C48.3333 20.8958 47.7708 21.3854 47.375 22.0312C46.9792 22.6562 46.7812 23.3958 46.7812 24.25H37.7812C37.7812 22.8125 38.1146 21.4479 38.7812 20.1562C39.4479 18.8646 40.4167 17.7292 41.6875 16.75C42.9583 15.75 44.4688 14.9688 46.2188 14.4062C47.9896 13.8438 49.9688 13.5625 52.1562 13.5625C54.7812 13.5625 57.1146 14 59.1562 14.875C61.1979 15.75 62.8021 17.0625 63.9688 18.8125C65.1562 20.5625 65.75 22.75 65.75 25.375V39.8438C65.75 41.6979 65.8646 43.2188 66.0938 44.4062C66.3229 45.5729 66.6562 46.5938 67.0938 47.4688V48H58C57.5625 47.0833 57.2292 45.9375 57 44.5625C56.7917 43.1667 56.6875 41.7708 56.6875 40.375ZM57.875 27.4062L57.9375 32.5H52.9062C51.7188 32.5 50.6875 32.6354 49.8125 32.9062C48.9375 33.1771 48.2188 33.5625 47.6562 34.0625C47.0938 34.5417 46.6771 35.1042 46.4062 35.75C46.1562 36.3958 46.0312 37.1042 46.0312 37.875C46.0312 38.6458 46.2083 39.3438 46.5625 39.9688C46.9167 40.5729 47.4271 41.0521 48.0938 41.4062C48.7604 41.7396 49.5417 41.9062 50.4375 41.9062C51.7917 41.9062 52.9688 41.6354 53.9688 41.0938C54.9688 40.5521 55.7396 39.8854 56.2812 39.0938C56.8438 38.3021 57.1354 37.5521 57.1562 36.8438L59.5312 40.6562C59.1979 41.5104 58.7396 42.3958 58.1562 43.3125C57.5938 44.2292 56.875 45.0938 56 45.9062C55.125 46.6979 54.0729 47.3542 52.8438 47.875C51.6146 48.375 50.1562 48.625 48.4688 48.625C46.3229 48.625 44.375 48.1979 42.625 47.3438C40.8958 46.4688 39.5208 45.2708 38.5 43.75C37.5 42.2083 37 40.4583 37 38.5C37 36.7292 37.3333 35.1562 38 33.7812C38.6667 32.4062 39.6458 31.25 40.9375 30.3125C42.25 29.3542 43.8854 28.6354 45.8438 28.1562C47.8021 27.6562 50.0729 27.4062 52.6562 27.4062H57.875ZM72.6875 0H81.6875V40.25L80.7812 48H72.6875V0ZM103.094 30.75V31.4062C103.094 33.9271 102.823 36.2396 102.281 38.3438C101.76 40.4479 100.948 42.2708 99.8438 43.8125C98.7396 45.3333 97.3646 46.5208 95.7188 47.375C94.0938 48.2083 92.1771 48.625 89.9688 48.625C87.9062 48.625 86.1146 48.2083 84.5938 47.375C83.0938 46.5417 81.8333 45.3646 80.8125 43.8438C79.7917 42.3229 78.9688 40.5417 78.3438 38.5C77.7188 36.4583 77.25 34.2292 76.9375 31.8125V30.375C77.25 27.9583 77.7188 25.7292 78.3438 23.6875C78.9688 21.6458 79.7917 19.8646 80.8125 18.3438C81.8333 16.8229 83.0938 15.6458 84.5938 14.8125C86.0938 13.9792 87.8646 13.5625 89.9062 13.5625C92.1354 13.5625 94.0729 13.9896 95.7188 14.8438C97.3854 15.6771 98.7604 16.8646 99.8438 18.4062C100.948 19.9271 101.76 21.7396 102.281 23.8438C102.823 25.9271 103.094 28.2292 103.094 30.75ZM94.0938 31.4062V30.75C94.0938 29.375 93.9896 28.0833 93.7812 26.875C93.5938 25.6458 93.2604 24.5729 92.7812 23.6562C92.3021 22.7188 91.6458 21.9792 90.8125 21.4375C90 20.8958 88.9479 20.625 87.6562 20.625C86.4271 20.625 85.3854 20.8333 84.5312 21.25C83.6771 21.6667 82.9688 22.25 82.4062 23C81.8646 23.75 81.4583 24.6458 81.1875 25.6875C80.9167 26.7083 80.75 27.8333 80.6875 29.0625V33.1562C80.75 34.8021 81.0208 36.2604 81.5 37.5312C82 38.7812 82.75 39.7708 83.75 40.5C84.7708 41.2083 86.0938 41.5625 87.7188 41.5625C88.9896 41.5625 90.0417 41.3125 90.875 40.8125C91.7083 40.3125 92.3542 39.6042 92.8125 38.6875C93.2917 37.7708 93.625 36.6979 93.8125 35.4688C94 34.2188 94.0938 32.8646 94.0938 31.4062ZM118.188 0V48H109.156V0H118.188ZM141.188 48.625C138.562 48.625 136.208 48.2083 134.125 47.375C132.042 46.5208 130.271 45.3438 128.812 43.8438C127.375 42.3438 126.271 40.6042 125.5 38.625C124.729 36.625 124.344 34.5 124.344 32.25V31C124.344 28.4375 124.708 26.0938 125.438 23.9688C126.167 21.8438 127.208 20 128.562 18.4375C129.938 16.875 131.604 15.6771 133.562 14.8438C135.521 13.9896 137.729 13.5625 140.188 13.5625C142.583 13.5625 144.708 13.9583 146.562 14.75C148.417 15.5417 149.969 16.6667 151.219 18.125C152.49 19.5833 153.448 21.3333 154.094 23.375C154.74 25.3958 155.062 27.6458 155.062 30.125V33.875H128.188V27.875H146.219V27.1875C146.219 25.9375 145.99 24.8229 145.531 23.8438C145.094 22.8438 144.427 22.0521 143.531 21.4688C142.635 20.8854 141.49 20.5938 140.094 20.5938C138.906 20.5938 137.885 20.8542 137.031 21.375C136.177 21.8958 135.479 22.625 134.938 23.5625C134.417 24.5 134.021 25.6042 133.75 26.875C133.5 28.125 133.375 29.5 133.375 31V32.25C133.375 33.6042 133.562 34.8542 133.938 36C134.333 37.1458 134.885 38.1354 135.594 38.9688C136.323 39.8021 137.198 40.4479 138.219 40.9062C139.26 41.3646 140.438 41.5938 141.75 41.5938C143.375 41.5938 144.885 41.2812 146.281 40.6562C147.698 40.0104 148.917 39.0417 149.938 37.75L154.312 42.5C153.604 43.5208 152.635 44.5 151.406 45.4375C150.198 46.375 148.74 47.1458 147.031 47.75C145.323 48.3333 143.375 48.625 141.188 48.625Z" fill="#161A1D"/>
<circle cx="44.2069" cy="62.3622" r="20.3879" stroke="#D90429" stroke-width="5"/>
<line x1="18.9992" y1="100.047" x2="47.6199" y2="30.6418" stroke="#D90429" stroke-width="5"/>
<line x1="28.4858" y1="16.7531" x2="72.1323" y2="92.5979" stroke="#D90429" stroke-width="5"/>
<line x1="6.54752" y1="77.7914" x2="78.5475" y2="64.5413" stroke="#D90429" stroke-width="5"/>
<line x1="71.0638" y1="79.2133" x2="76.0724" y2="40.5754" stroke="#D90429" stroke-width="5"/>
<line x1="78.8387" y1="41.7549" x2="87.4249" y2="78.2463" stroke="#D90429" stroke-width="5"/>
<line x1="86.7844" y1="78.819" x2="86.7844" y2="42.3276" stroke="#D90429" stroke-width="5"/>
<line x1="91.8931" y1="79.5501" x2="101.91" y2="45.2053" stroke="#D90429" stroke-width="5"/>
<line x1="107.564" y1="80.6303" x2="101.839" y2="43.4234" stroke="#D90429" stroke-width="5"/>
<line x1="95.1701" y1="68.5104" x2="110.911" y2="64.9328" stroke="#D90429" stroke-width="5"/>
<line y1="-2.5" x2="33.6919" y2="-2.5" transform="matrix(0.021237 0.999774 -0.999836 0.0180966 114.328 45.1346)" stroke="#D90429" stroke-width="5"/>
<line y1="-2.5" x2="18.7901" y2="-2.5" transform="matrix(0.990066 0.140601 -0.164399 0.986394 111.466 44.4742)" stroke="#D90429" stroke-width="5"/>
<line y1="-2.5" x2="24.4409" y2="-2.5" transform="matrix(0.761161 -0.648563 0.707107 0.707107 115.043 60.9861)" stroke="#D90429" stroke-width="5"/>
<line y1="-2.5" x2="31.0924" y2="-2.5" transform="matrix(0.644354 0.764728 -0.812324 0.583207 112.181 55.0417)" stroke="#D90429" stroke-width="5"/>
<line y1="-2.5" x2="22.0524" y2="-2.5" transform="matrix(-0.940941 0.33857 -0.313771 -0.949499 149.388 46.6207)" stroke="#D90429" stroke-width="5"/>
<line x1="130.955" y1="54.9833" x2="139.541" y2="76.1689" stroke="#D90429" stroke-width="5"/>
<line x1="137.414" y1="74.8231" x2="152.614" y2="77.0611" stroke="#D90429" stroke-width="5"/>
<line x1="158.327" y1="45.2439" x2="157.611" y2="78.1577" stroke="#D90429" stroke-width="5"/>
<line x1="152.537" y1="59.8784" x2="171.14" y2="62.025" stroke="#D90429" stroke-width="5"/>
<line x1="171.92" y1="45.2982" x2="170.489" y2="78.212" stroke="#D90429" stroke-width="5"/>
<line x1="177.805" y1="49.3408" x2="189.969" y2="64.3667" stroke="#D90429" stroke-width="5"/>
<line x1="193.84" y1="52.7474" x2="178.098" y2="84.2302" stroke="#D90429" stroke-width="5"/>
</svg>
